<svg width="320" height="369" viewBox="0 0 320 369" fill="none" xmlns="http://www.w3.org/2000/svg">
<g filter="url(#filter0_d_2092_249)">
<path d="M63.5981 30.1994L104.795 9.21322C116.608 3.19502 129.889 0.655719 143.089 1.89085L232.464 10.2531C255.656 12.4231 276.25 25.9881 287.401 46.4398L306.702 81.8394C313.444 94.2057 316.299 108.318 314.894 122.333L300.694 263.93V283.259C300.694 310.163 285.275 334.687 261.028 346.345L247.008 353.086C237.543 357.637 227.176 360 216.675 360H128.199C124.658 360 121.123 359.731 117.623 359.196L93.4747 355.506C65.3172 351.202 42.5756 330.266 35.9631 302.559L6.41225 178.742C3.55547 166.772 3.90472 154.26 7.4248 142.469L28.2968 72.5495C33.7751 54.198 46.5331 38.8926 63.5981 30.1994Z" fill="#F3DDB4"/>
<path d="M63.5981 30.1994L104.795 9.21322C116.608 3.19502 129.889 0.655719 143.089 1.89085L232.464 10.2531C255.656 12.4231 276.25 25.9881 287.401 46.4398L306.702 81.8394C313.444 94.2057 316.299 108.318 314.894 122.333L300.694 263.93V283.259C300.694 310.163 285.275 334.687 261.028 346.345L247.008 353.086C237.543 357.637 227.176 360 216.675 360H128.199C124.658 360 121.123 359.731 117.623 359.196L93.4747 355.506C65.3172 351.202 42.5756 330.266 35.9631 302.559L6.41225 178.742C3.55547 166.772 3.90472 154.26 7.4248 142.469L28.2968 72.5495C33.7751 54.198 46.5331 38.8926 63.5981 30.1994Z" stroke="black"/>
</g>
<path d="M86.7336 125.596C86.7157 124.331 86.9434 123.095 87.3792 122.031C87.8159 120.964 88.431 120.143 89.1174 119.621L89.1428 119.601L89.1672 119.58L153.556 63.5708C156.926 61.1767 160.603 59.9492 164.304 59.9438C168.018 59.9385 171.709 61.1633 175.092 63.564L175.125 63.5884L175.16 63.6089L269.685 119.643C270.361 120.164 270.967 120.975 271.4 122.027C271.838 123.093 272.068 124.333 272.05 125.602V307.793C272.05 311.32 271.146 314.471 269.738 316.709C268.321 318.962 266.492 320.162 264.64 320.163H94.1438C92.2922 320.162 90.463 318.962 89.0461 316.709C87.6381 314.471 86.7337 311.32 86.7336 307.793V125.596Z" fill="#F2F2F2" stroke="black" stroke-width="2"/>
<path d="M157.066 141.234C162.859 137.955 169.254 137.849 175.086 140.917L175.65 141.225L244.289 180.419L244.305 180.429L244.323 180.438C244.795 180.684 245.265 181.164 245.626 181.883C245.941 182.509 246.143 183.261 246.199 184.061L246.214 184.406V311.726C246.214 314.124 245.461 316.265 244.288 317.785C243.117 319.304 241.568 320.162 239.936 320.162H93.011C91.379 320.162 89.83 319.304 88.6584 317.785C87.4862 316.265 86.7327 314.124 86.7327 311.726V184.402C86.7491 183.476 86.9607 182.596 87.3196 181.881C87.6797 181.163 88.1495 180.683 88.6213 180.436L88.6389 180.427L88.6545 180.417L157.066 141.234Z" fill="#246071" stroke="black" stroke-width="2"/>
<path d="M104.794 214.929H128.034C128.82 214.929 129.694 215.387 130.411 216.435C131.128 217.485 131.562 218.966 131.562 220.557V233.036H101.266V220.557L101.271 220.26C101.321 218.783 101.746 217.42 102.418 216.435C103.09 215.453 103.899 214.989 104.646 214.935L104.794 214.929Z" fill="white" stroke="black" stroke-width="2"/>
<path d="M131.562 236.711V256.062C131.562 257.602 131.131 259.036 130.417 260.054C129.706 261.068 128.832 261.52 128.034 261.52H104.794C103.996 261.519 103.122 261.067 102.412 260.054C101.698 259.036 101.266 257.602 101.266 256.062V236.711H131.562Z" fill="white" stroke="black" stroke-width="2"/>
<path d="M159.17 132.688C163.112 130.643 167.413 130.643 171.355 132.688L247.653 172.263C249.292 173.113 250.769 174.69 251.835 176.85C252.9 179.006 253.481 181.599 253.481 184.273C253.481 186.373 253.123 188.435 252.443 190.278C251.764 192.123 250.79 193.677 249.629 194.825C248.469 195.971 247.167 196.671 245.842 196.914C244.522 197.157 243.171 196.949 241.891 196.285L172.276 160.176C167.757 157.831 162.769 157.831 158.249 160.176L88.6338 196.285C87.3535 196.949 86.0025 197.157 84.6826 196.914C83.3579 196.671 82.0558 195.971 80.8965 194.825C79.7351 193.677 78.7618 192.123 78.082 190.278C77.4028 188.435 77.0439 186.374 77.0439 184.273C77.044 181.599 77.6259 179.006 78.6904 176.85C79.7563 174.69 81.233 173.113 82.8721 172.263L159.17 132.688Z" fill="#96744E" stroke="black" stroke-width="2"/>
<mask id="path-7-inside-1_2092_249" fill="white">
<path d="M176.698 322H157.864C155.866 321.997 153.949 320.866 152.536 318.857C151.123 316.847 150.328 314.123 150.325 311.281V246.43C150.328 243.588 151.123 240.864 152.536 238.854C153.949 236.845 155.866 235.714 157.864 235.711H176.698C178.696 235.714 180.613 236.845 182.026 238.854C183.439 240.864 184.234 243.588 184.237 246.43V311.281C184.234 314.123 183.439 316.847 182.026 318.857C180.613 320.866 178.696 321.997 176.698 322ZM157.864 237.548C156.208 237.551 154.62 238.488 153.449 240.153C152.278 241.818 151.62 244.075 151.618 246.43V311.281C151.62 313.636 152.278 315.893 153.449 317.558C154.62 319.223 156.208 320.16 157.864 320.162H176.698C178.354 320.16 179.942 319.223 181.113 317.558C182.284 315.893 182.942 313.636 182.944 311.281V246.43C182.942 244.075 182.284 241.818 181.113 240.153C179.942 238.488 178.354 237.551 176.698 237.548H157.864Z"/>
</mask>
<path d="M176.698 322H157.864C155.866 321.997 153.949 320.866 152.536 318.857C151.123 316.847 150.328 314.123 150.325 311.281V246.43C150.328 243.588 151.123 240.864 152.536 238.854C153.949 236.845 155.866 235.714 157.864 235.711H176.698C178.696 235.714 180.613 236.845 182.026 238.854C183.439 240.864 184.234 243.588 184.237 246.43V311.281C184.234 314.123 183.439 316.847 182.026 318.857C180.613 320.866 178.696 321.997 176.698 322ZM157.864 237.548C156.208 237.551 154.62 238.488 153.449 240.153C152.278 241.818 151.62 244.075 151.618 246.43V311.281C151.62 313.636 152.278 315.893 153.449 317.558C154.62 319.223 156.208 320.16 157.864 320.162H176.698C178.354 320.16 179.942 319.223 181.113 317.558C182.284 315.893 182.942 313.636 182.944 311.281V246.43C182.942 244.075 182.284 241.818 181.113 240.153C179.942 238.488 178.354 237.551 176.698 237.548H157.864Z" fill="#3F3D56"/>
<path d="M176.698 322V324L176.701 324L176.698 322ZM157.864 322L157.861 324H157.864V322ZM150.325 311.281H148.325L148.325 311.283L150.325 311.281ZM150.325 246.43L148.325 246.428V246.43H150.325ZM157.864 235.711V233.711L157.861 233.711L157.864 235.711ZM176.698 235.711L176.701 233.711H176.698V235.711ZM184.237 246.43H186.237V246.428L184.237 246.43ZM184.237 311.281L186.237 311.283V311.281H184.237ZM157.864 237.548V235.548L157.861 235.548L157.864 237.548ZM151.618 246.43L149.618 246.428V246.43H151.618ZM151.618 311.281H149.618L149.618 311.283L151.618 311.281ZM157.864 320.162L157.861 322.162H157.864V320.162ZM176.698 320.162V322.162L176.701 322.162L176.698 320.162ZM182.944 311.281L184.944 311.283V311.281H182.944ZM182.944 246.43H184.944L184.944 246.428L182.944 246.43ZM176.698 237.548L176.701 235.548H176.698V237.548ZM176.698 322V320H157.864V322V324H176.698V322ZM157.864 322L157.867 320C156.67 319.998 155.308 319.322 154.172 317.706L152.536 318.857L150.9 320.007C152.591 322.411 155.061 323.995 157.861 324L157.864 322ZM152.536 318.857L154.172 317.706C153.031 316.084 152.327 313.776 152.325 311.279L150.325 311.281L148.325 311.283C148.328 314.469 149.215 317.611 150.9 320.007L152.536 318.857ZM150.325 311.281H152.325V246.43H150.325H148.325V311.281H150.325ZM150.325 246.43L152.325 246.432C152.327 243.934 153.031 241.627 154.172 240.005L152.536 238.854L150.9 237.704C149.215 240.1 148.328 243.242 148.325 246.428L150.325 246.43ZM152.536 238.854L154.172 240.005C155.308 238.389 156.67 237.713 157.867 237.711L157.864 235.711L157.861 233.711C155.061 233.715 152.591 235.3 150.9 237.704L152.536 238.854ZM157.864 235.711V237.711H176.698V235.711V233.711H157.864V235.711ZM176.698 235.711L176.695 237.711C177.892 237.713 179.254 238.389 180.39 240.005L182.026 238.854L183.662 237.704C181.971 235.3 179.501 233.715 176.701 233.711L176.698 235.711ZM182.026 238.854L180.39 240.005C181.531 241.627 182.235 243.934 182.237 246.432L184.237 246.43L186.237 246.428C186.234 243.242 185.347 240.1 183.662 237.704L182.026 238.854ZM184.237 246.43H182.237V311.281H184.237H186.237V246.43H184.237ZM184.237 311.281L182.237 311.279C182.235 313.776 181.531 316.084 180.39 317.706L182.026 318.857L183.662 320.007C185.347 317.611 186.234 314.469 186.237 311.283L184.237 311.281ZM182.026 318.857L180.39 317.706C179.254 319.322 177.892 319.998 176.695 320L176.698 322L176.701 324C179.501 323.995 181.971 322.411 183.662 320.007L182.026 318.857ZM157.864 237.548L157.861 235.548C155.403 235.553 153.262 236.943 151.814 239.002L153.449 240.153L155.085 241.303C155.979 240.033 157.013 239.55 157.868 239.548L157.864 237.548ZM153.449 240.153L151.814 239.002C150.37 241.054 149.62 243.729 149.618 246.428L151.618 246.43L153.618 246.432C153.619 244.422 154.187 242.581 155.085 241.303L153.449 240.153ZM151.618 246.43H149.618V311.281H151.618H153.618V246.43H151.618ZM151.618 311.281L149.618 311.283C149.62 313.982 150.37 316.657 151.814 318.709L153.449 317.558L155.085 316.408C154.187 315.13 153.619 313.289 153.618 311.279L151.618 311.281ZM153.449 317.558L151.814 318.709C153.262 320.768 155.403 322.158 157.861 322.162L157.864 320.162L157.868 318.162C157.013 318.161 155.979 317.678 155.085 316.408L153.449 317.558ZM157.864 320.162V322.162H176.698V320.162V318.162H157.864V320.162ZM176.698 320.162L176.701 322.162C179.159 322.158 181.3 320.768 182.748 318.709L181.113 317.558L179.477 316.408C178.583 317.678 177.549 318.161 176.694 318.162L176.698 320.162ZM181.113 317.558L182.748 318.709C184.192 316.657 184.942 313.982 184.944 311.283L182.944 311.281L180.944 311.279C180.943 313.289 180.375 315.13 179.477 316.408L181.113 317.558ZM182.944 311.281H184.944V246.43H182.944H180.944V311.281H182.944ZM182.944 246.43L184.944 246.428C184.942 243.729 184.192 241.054 182.748 239.002L181.113 240.153L179.477 241.303C180.375 242.581 180.943 244.422 180.944 246.432L182.944 246.43ZM181.113 240.153L182.748 239.002C181.3 236.943 179.159 235.553 176.701 235.548L176.698 237.548L176.694 239.548C177.549 239.55 178.583 240.033 179.477 241.303L181.113 240.153ZM176.698 237.548V235.548H157.864V237.548V239.548H176.698V237.548Z" fill="black" mask="url(#path-7-inside-1_2092_249)"/>
<path d="M165.262 81.7256C168.22 81.7256 171.169 83.3225 173.492 86.3906C175.64 89.2274 177.064 93.0874 177.497 97.3184H153.028C153.461 93.0874 154.885 89.2274 157.033 86.3906C159.356 83.3225 162.305 81.7256 165.262 81.7256Z" fill="white" stroke="black" stroke-width="2"/>
<path d="M177.553 101.832C177.331 106.431 175.977 110.727 173.778 113.908C171.42 117.319 168.343 119.101 165.262 119.101C162.181 119.101 159.105 117.319 156.747 113.908C154.548 110.727 153.194 106.431 152.971 101.832H177.553Z" fill="white" stroke="black" stroke-width="2"/>
<path d="M153.573 111.885H176.145C176.844 111.885 177.598 112.257 178.209 113.077C178.824 113.903 179.199 115.071 179.199 116.33C179.199 117.589 178.824 118.757 178.209 119.583C177.598 120.403 176.844 120.775 176.145 120.775H153.573C152.874 120.775 152.118 120.403 151.507 119.583C150.892 118.757 150.518 117.589 150.518 116.33C150.518 115.071 150.892 113.903 151.507 113.077C152.118 112.257 152.874 111.885 153.573 111.885Z" fill="#E3DAC9" stroke="black" stroke-width="2"/>
<path d="M99.9155 256.817H132.106C132.665 256.817 133.324 257.145 133.884 257.972C134.445 258.801 134.791 259.983 134.792 261.262C134.792 262.542 134.445 263.723 133.884 264.552C133.324 265.38 132.665 265.707 132.106 265.708H99.9155C99.3569 265.708 98.6972 265.379 98.1372 264.552C97.5761 263.723 97.229 262.542 97.229 261.262C97.229 259.983 97.5761 258.801 98.1372 257.972C98.6972 257.145 99.3569 256.817 99.9155 256.817Z" fill="#E3DAC9" stroke="black" stroke-width="2"/>
<path d="M230.066 236.711V256.062C230.066 257.602 229.635 259.036 228.921 260.054C228.21 261.068 227.336 261.52 226.537 261.52H203.298C202.5 261.519 201.626 261.067 200.915 260.054C200.202 259.036 199.77 257.602 199.77 256.062V236.711H230.066Z" fill="white" stroke="black" stroke-width="2"/>
<path d="M203.298 214.929H226.537C227.324 214.929 228.198 215.387 228.914 216.435C229.632 217.485 230.066 218.966 230.066 220.557V233.036H199.77V220.557L199.775 220.26C199.825 218.783 200.249 217.42 200.922 216.435C201.593 215.453 202.403 214.989 203.15 214.935L203.298 214.929Z" fill="white" stroke="black" stroke-width="2"/>
<path d="M178.584 274.41C178.797 274.41 179.129 274.546 179.456 275.055C179.776 275.553 180.007 276.301 180.007 277.18C180.007 278.058 179.776 278.807 179.456 279.306C179.129 279.814 178.797 279.95 178.584 279.95C178.371 279.95 178.04 279.814 177.713 279.306C177.393 278.807 177.162 278.058 177.162 277.18C177.162 276.301 177.393 275.553 177.713 275.055C178.04 274.546 178.371 274.41 178.584 274.41Z" fill="#3F3D56" stroke="black" stroke-width="2"/>
<mask id="path-16-inside-2_2092_249" fill="white">
<path d="M89.4932 279.274L79.2734 256.257L79.7464 255.817L89.444 277.658L97.3462 255.848L97.8438 256.226L89.4932 279.274Z"/>
</mask>
<path d="M89.4932 279.274L79.2734 256.257L79.7464 255.817L89.444 277.658L97.3462 255.848L97.8438 256.226L89.4932 279.274Z" fill="#3F3D56"/>
<path d="M89.4932 279.274L87.6653 280.086L89.6813 284.626L91.3736 279.955L89.4932 279.274ZM79.2734 256.257L77.9102 254.794L76.8669 255.766L77.4455 257.069L79.2734 256.257ZM79.7464 255.817L81.5743 255.005L80.4358 252.441L78.3831 254.354L79.7464 255.817ZM89.444 277.658L87.6161 278.47L89.632 283.01L91.3244 278.339L89.444 277.658ZM97.3462 255.848L98.5555 254.255L96.3914 252.612L95.4659 255.167L97.3462 255.848ZM97.8438 256.226L99.7242 256.907L100.226 255.523L99.0531 254.633L97.8438 256.226ZM89.4932 279.274L91.3211 278.462L81.1014 255.446L79.2734 256.257L77.4455 257.069L87.6653 280.086L89.4932 279.274ZM79.2734 256.257L80.6367 257.721L81.1096 257.28L79.7464 255.817L78.3831 254.354L77.9102 254.794L79.2734 256.257ZM79.7464 255.817L77.9185 256.629L87.6161 278.47L89.444 277.658L91.2719 276.846L81.5743 255.005L79.7464 255.817ZM89.444 277.658L91.3244 278.339L99.2266 256.53L97.3462 255.848L95.4659 255.167L87.5636 276.977L89.444 277.658ZM97.3462 255.848L96.1369 257.441L96.6345 257.819L97.8438 256.226L99.0531 254.633L98.5555 254.255L97.3462 255.848ZM97.8438 256.226L95.9634 255.545L87.6128 278.593L89.4932 279.274L91.3736 279.955L99.7242 256.907L97.8438 256.226Z" fill="black" mask="url(#path-16-inside-2_2092_249)"/>
<path d="M69.0493 321.116C69.0491 321.122 69.0495 321.126 69.0493 321.129C69.0492 321.132 69.0484 321.135 69.0483 321.135L69.0493 321.116ZM68.0942 240.9C68.5967 240.9 69.1112 241.041 69.6118 241.339C70.1155 241.64 70.5996 242.096 71.0229 242.706C71.4462 243.315 71.793 244.054 72.0327 244.887C72.2722 245.719 72.3969 246.618 72.397 247.53V249.149H98.1929C99.1924 249.149 100.264 249.72 101.122 250.955C101.982 252.192 102.496 253.926 102.496 255.779C102.496 257.632 101.982 259.366 101.122 260.604C100.264 261.838 99.1924 262.41 98.1929 262.41H72.397V320.099C70.3652 320.153 69.2943 320.169 68.7329 320.161C68.6308 320.159 68.5515 320.153 68.4907 320.151C68.333 320.069 68.1968 320.045 68.1646 320.039C67.9836 320.003 67.7338 319.992 67.4185 319.988C66.8328 319.979 65.7604 319.993 63.7905 320.045V262.41H60.354C59.3545 262.41 58.2832 261.838 57.4253 260.604C56.5652 259.366 56.0513 257.632 56.0513 255.779C56.0514 253.926 56.5653 252.192 57.4253 250.955C58.2832 249.72 59.3545 249.149 60.354 249.149H63.7905V247.53C63.7906 246.618 63.9163 245.719 64.1558 244.887C64.3955 244.054 64.7422 243.315 65.1655 242.706C65.5889 242.096 66.073 241.64 66.5767 241.339C67.0773 241.041 67.5917 240.9 68.0942 240.9Z" fill="#96744E" stroke="black" stroke-width="2"/>
<path d="M68.3735 254.304C68.7425 254.304 69.3921 254.766 69.3921 255.817C69.3919 256.869 68.7425 257.33 68.3735 257.33C68.0046 257.33 67.3551 256.869 67.355 255.817C67.355 254.766 68.0045 254.304 68.3735 254.304Z" fill="white" stroke="black" stroke-width="2"/>
<path d="M101.078 272.734L101.202 272.739C101.825 272.785 102.518 273.175 103.102 274.032C103.687 274.892 104.06 276.087 104.106 277.389L104.111 277.65V288.438C104.109 289.841 103.727 291.14 103.103 292.057C102.48 292.971 101.732 293.352 101.078 293.354H78.4602C77.8071 293.352 77.0598 292.971 76.4368 292.057C75.8513 291.197 75.4791 290.001 75.4338 288.699L75.429 288.438V277.65C75.4301 276.248 75.8125 274.949 76.4368 274.032C77.021 273.175 77.7145 272.785 78.3372 272.739L78.4602 272.734H101.078Z" fill="#E3DAC9" stroke="black" stroke-width="2"/>
<path d="M97.0767 281.112C97.0773 281.112 97.0791 281.113 97.0825 281.114C97.0893 281.116 97.1053 281.122 97.1294 281.139C97.1801 281.173 97.2583 281.246 97.3423 281.38C97.5128 281.652 97.6509 282.09 97.6509 282.626C97.6508 283.162 97.5127 283.599 97.3423 283.871C97.2583 284.005 97.1801 284.078 97.1294 284.112C97.1052 284.129 97.0893 284.135 97.0825 284.137C97.0791 284.138 97.0773 284.139 97.0767 284.139H82.4624C82.4615 284.139 82.4596 284.138 82.4565 284.137C82.4496 284.134 82.4336 284.128 82.4097 284.112C82.359 284.078 82.2807 284.005 82.1968 283.871C82.0264 283.599 81.8883 283.162 81.8882 282.626C81.8882 282.09 82.0263 281.652 82.1968 281.38C82.2808 281.246 82.359 281.173 82.4097 281.139C82.4337 281.122 82.4497 281.117 82.4565 281.114C82.4596 281.113 82.4616 281.112 82.4624 281.112H97.0767Z" fill="#6C63FF" stroke="black" stroke-width="2"/>
<path d="M198.762 255.979H230.266C230.89 255.979 231.638 256.368 232.274 257.359C232.908 258.348 233.295 259.751 233.295 261.263C233.295 262.775 232.908 264.177 232.274 265.166C231.638 266.157 230.89 266.546 230.266 266.546H198.762C198.138 266.546 197.391 266.157 196.755 265.166C196.121 264.177 195.733 262.775 195.733 261.263C195.733 259.751 196.121 258.348 196.755 257.359C197.351 256.43 198.045 256.031 198.644 255.984L198.762 255.979Z" fill="#E3DAC9" stroke="black" stroke-width="2"/>
<path d="M244.964 39C252.006 39 258.873 43.0244 264.004 50.4062C269.137 57.7912 272.051 67.8629 272.052 78.4102L272.021 130.728C271.913 130.717 271.797 130.706 271.673 130.694C270.707 130.604 269.258 130.474 267.32 130.311C263.548 129.993 257.925 129.552 250.415 129.046C240.879 105.62 221.015 91.0398 203.722 78.2598C194.964 71.7871 186.897 65.8007 181.006 59.3457C175.377 53.1789 171.816 46.6677 171.531 39H244.964Z" fill="#E3DAC9" stroke="black" stroke-width="2"/>
<path d="M221.185 50.7285V82.2393H208.651V50.7285H221.185Z" fill="#F2F2F2" stroke="black" stroke-width="2"/>
<path d="M162.925 40.5049C166.791 38.4996 170.996 38.4998 174.863 40.5039L250.73 103.981L250.811 104.05L250.906 104.1C252.536 104.958 254.006 106.553 255.069 108.74C256.13 110.924 256.711 113.55 256.711 116.26C256.711 118.387 256.353 120.474 255.676 122.341C254.998 124.209 254.028 125.783 252.872 126.944C251.717 128.104 250.422 128.809 249.107 129.055C247.83 129.293 246.524 129.099 245.279 128.467L176.074 68.5049L175.987 68.4297L175.885 68.376L175.462 68.1602C171.071 66.0047 166.269 66.0768 161.906 68.376L161.804 68.4297L161.718 68.5049L92.5115 128.467C91.2671 129.099 89.9613 129.293 88.6843 129.055C87.3697 128.809 86.0745 128.104 84.9197 126.944C83.763 125.783 82.7936 124.21 82.116 122.341C81.4389 120.474 81.0808 118.387 81.0808 116.26C81.0808 113.55 81.6602 110.924 82.7214 108.74C83.7842 106.553 85.2557 104.958 86.8855 104.1L86.9792 104.05L87.0613 103.981L162.925 40.5049Z" fill="#E3DAC9" stroke="black" stroke-width="2"/>
<path d="M90.954 108.044H90.2903V114.169H90.954V108.044Z" fill="#F2F2F2"/>
<path d="M131.441 124.122H130.113V130.246H131.441V124.122Z" fill="#F2F2F2"/>
<path d="M126.795 284.127H126.131V290.252H126.795V284.127Z" fill="#F2F2F2"/>
<path d="M102.915 89.5596C105.063 89.4201 107.19 89.3524 108.771 89.4551C109.566 89.5068 110.188 89.5992 110.599 89.7324C110.805 89.7996 110.922 89.866 110.978 89.9131C110.985 89.9192 110.989 89.9249 110.993 89.9287C110.998 91.1127 111.266 95.478 111.532 99.5332C111.667 101.585 111.801 103.566 111.902 105.034C111.953 105.768 111.995 106.374 112.024 106.797C112.039 107.008 112.051 107.174 112.059 107.286C112.063 107.342 112.065 107.385 112.067 107.414C112.068 107.429 112.07 107.44 112.07 107.447V107.458L112.078 107.566L112.13 107.661L120.088 122.405L105.961 126.601C105.876 126.475 105.766 126.312 105.635 126.116C105.298 125.614 104.82 124.894 104.256 124.022C103.126 122.279 101.651 119.934 100.267 117.521C98.8798 115.104 97.5953 112.637 96.8359 110.647C96.455 109.649 96.2186 108.801 96.1562 108.153C96.091 107.476 96.2301 107.184 96.374 107.072C96.8607 106.693 97.1406 106.093 97.2998 105.432C97.4609 104.762 97.5143 103.963 97.4971 103.103C97.4625 101.379 97.1411 99.3166 96.7354 97.3486C96.3286 95.3759 95.8318 93.4762 95.4375 92.0713C95.2403 91.3685 95.0681 90.7886 94.9453 90.3838C94.9388 90.3624 94.932 90.3417 94.9258 90.3213C94.9721 90.3156 95.021 90.3099 95.0723 90.3037C95.5414 90.2471 96.2119 90.1691 97.0166 90.082C98.627 89.9077 100.772 89.6988 102.915 89.5596Z" fill="#F3DDB4" stroke="black"/>
<path d="M128.757 182.048C129.595 181.994 130.572 182.197 131.678 182.883C131.735 182.918 131.834 183.01 131.961 183.21C132.085 183.404 132.217 183.669 132.354 184.009C132.628 184.689 132.905 185.621 133.18 186.781C133.73 189.099 134.262 192.264 134.769 195.997C135.783 203.459 136.692 213.141 137.453 222.739C138.215 232.336 138.828 241.842 139.251 248.949C139.463 252.503 139.626 255.456 139.738 257.521C139.793 258.554 139.835 259.364 139.864 259.916C139.878 260.192 139.889 260.403 139.896 260.546C139.899 260.617 139.903 260.672 139.905 260.708C139.905 260.726 139.906 260.739 139.906 260.748V260.763C139.907 260.767 139.907 260.774 139.907 260.782C139.908 260.799 139.909 260.825 139.91 260.858C139.913 260.925 139.917 261.024 139.922 261.153C139.932 261.412 139.947 261.792 139.967 262.275C140.007 263.242 140.066 264.624 140.14 266.284C140.288 269.604 140.499 274.039 140.753 278.498C141.007 282.956 141.304 287.442 141.622 290.862C141.781 292.571 141.947 294.022 142.116 295.074C142.201 295.598 142.288 296.037 142.38 296.363C142.426 296.525 142.477 296.676 142.537 296.801C142.584 296.897 142.681 297.08 142.866 297.186C142.857 297.204 142.844 297.23 142.824 297.26C142.667 297.499 142.31 297.821 141.806 298.186C140.821 298.898 139.496 299.619 138.814 299.989C138.709 300.046 138.561 300.14 138.465 300.293C138.411 300.38 138.368 300.494 138.371 300.629C138.375 300.763 138.423 300.875 138.479 300.957C138.578 301.101 138.721 301.182 138.808 301.226C138.909 301.276 139.023 301.318 139.135 301.354C139.56 301.487 140.253 301.615 140.801 301.742C141.092 301.81 141.356 301.88 141.571 301.955C141.653 301.984 141.721 302.012 141.775 302.037C141.711 302.082 141.629 302.136 141.522 302.194C140.825 302.572 139.957 303.137 139.007 303.738C138.046 304.346 136.981 305.003 135.858 305.59C133.593 306.774 131.175 307.626 128.971 307.284C127.967 307.128 127.379 306.604 127.009 305.811C126.621 304.978 126.474 303.847 126.432 302.525C126.389 301.189 126.454 299.806 126.443 298.369C126.432 296.973 126.348 295.578 125.987 294.401C125.831 293.895 125.666 292.969 125.499 291.701C125.334 290.445 125.17 288.884 125.012 287.13C124.695 283.623 124.4 279.356 124.146 275.224C123.892 271.092 123.68 267.097 123.531 264.135C123.457 262.654 123.399 261.431 123.36 260.579C123.34 260.153 123.325 259.82 123.315 259.593C123.31 259.479 123.306 259.392 123.303 259.334C123.302 259.305 123.301 259.282 123.3 259.268C123.3 259.26 123.3 259.255 123.3 259.251C123.3 259.249 123.299 259.248 123.299 259.247V259.246V259.245L123.296 259.173L123.273 259.104L110.406 221.619L109.434 221.759L109.934 221.781C109.434 221.759 109.434 221.759 109.434 221.76V221.77C109.434 221.777 109.433 221.788 109.432 221.802C109.431 221.83 109.429 221.873 109.426 221.93C109.421 222.043 109.414 222.211 109.405 222.43C109.385 222.867 109.357 223.51 109.323 224.33C109.254 225.97 109.159 228.32 109.053 231.157C108.841 236.832 108.588 244.461 108.418 252.273C108.249 260.085 108.164 268.087 108.291 274.506C108.355 277.715 108.471 280.535 108.657 282.741C108.751 283.844 108.862 284.8 108.994 285.578C109.125 286.346 109.282 286.977 109.48 287.407C110.805 290.285 111.292 292.963 111.211 295.08C111.129 297.228 110.47 298.688 109.641 299.288C109.342 299.505 109.112 299.751 108.981 300.041C108.845 300.34 108.833 300.641 108.895 300.925C108.954 301.197 109.08 301.453 109.22 301.684C109.36 301.915 109.533 302.151 109.7 302.379C110.404 303.333 111.08 304.249 110.801 305.461C110.672 306.019 110.329 306.413 109.724 306.693C109.094 306.985 108.199 307.142 107.036 307.188C104.71 307.278 101.541 306.916 97.7932 306.546C97.1463 306.482 96.4393 305.853 95.7336 304.431C95.0479 303.048 94.4476 301.082 93.927 298.702C92.8873 293.949 92.1909 287.66 91.7258 281.373C91.2611 275.09 91.0286 268.828 90.9124 264.136C90.8542 261.79 90.8243 259.837 90.8098 258.471C90.8026 257.788 90.7989 257.251 90.7971 256.886C90.7962 256.703 90.7964 256.564 90.7961 256.47C90.796 256.423 90.7962 256.387 90.7961 256.363C90.7961 256.351 90.7952 256.342 90.7952 256.336V256.328V256.327V256.308L90.7942 256.289V256.284C90.7939 256.281 90.7927 256.276 90.7922 256.27C90.7913 256.257 90.7903 256.238 90.7883 256.213C90.7844 256.163 90.7784 256.087 90.7708 255.989C90.7555 255.793 90.7334 255.504 90.7043 255.133C90.6461 254.39 90.5612 253.318 90.4553 252.003C90.2437 249.372 89.9473 245.765 89.6086 241.859C88.9317 234.053 88.084 225.035 87.4045 220.241C86.734 215.51 86.7323 208.566 86.9016 202.777C86.9861 199.889 87.1134 197.298 87.219 195.43C87.2718 194.495 87.3185 193.741 87.3528 193.222C87.3639 193.053 87.374 192.909 87.3821 192.792L124.257 185.071L124.47 185.026L124.582 184.84L124.583 184.839C124.584 184.838 124.585 184.835 124.587 184.832C124.592 184.825 124.599 184.813 124.61 184.797C124.63 184.765 124.662 184.717 124.704 184.656C124.79 184.534 124.918 184.36 125.087 184.158C125.427 183.753 125.922 183.249 126.547 182.834C127.171 182.42 127.913 182.102 128.757 182.048Z" fill="#2F2E41" stroke="black"/>
<path d="M109.038 305.969V325.829C109.038 326.021 108.99 326.121 108.939 326.183C108.884 326.251 108.779 326.327 108.575 326.388C108.145 326.517 107.463 326.527 106.505 326.456C104.656 326.318 101.925 325.889 98.9189 325.889C98.3002 325.889 97.8778 325.684 97.5723 325.35C97.2515 324.999 97.0216 324.462 96.8906 323.746C96.6277 322.307 96.7988 320.338 97.1699 318.307C97.5385 316.29 98.0929 314.267 98.5566 312.745C98.7882 311.984 98.9972 311.351 99.1475 310.909C99.2226 310.687 99.2826 310.513 99.3242 310.395C99.345 310.336 99.3613 310.291 99.3721 310.261C99.3774 310.246 99.3821 310.235 99.3848 310.228C99.3861 310.224 99.387 310.221 99.3877 310.219V310.217L99.4189 310.134V304.608L109.038 305.969Z" fill="#2F2E41" stroke="black"/>
<path d="M138.241 310.134L138.271 310.217H138.272V310.219C138.273 310.221 138.274 310.224 138.275 310.228C138.278 310.235 138.283 310.246 138.288 310.261C138.299 310.291 138.315 310.336 138.336 310.395C138.378 310.513 138.438 310.687 138.513 310.909C138.663 311.351 138.872 311.984 139.104 312.745C139.567 314.267 140.121 316.29 140.489 318.307C140.86 320.338 141.032 322.307 140.77 323.746C140.639 324.462 140.409 324.999 140.088 325.35C139.782 325.684 139.36 325.889 138.741 325.889C135.734 325.889 133.003 326.318 131.154 326.456C130.196 326.527 129.515 326.517 129.085 326.388C128.881 326.327 128.776 326.251 128.721 326.183C128.67 326.121 128.622 326.021 128.622 325.829V305.969L138.241 304.608V310.134Z" fill="#2F2E41" stroke="black"/>
<path d="M103.896 74.8589C110.361 74.8589 115.675 80.5913 115.675 87.7563C115.675 94.9214 110.361 100.654 103.896 100.654C97.4311 100.654 92.1177 94.9213 92.1177 87.7563C92.1178 80.5915 97.4312 74.8592 103.896 74.8589Z" fill="#F3DDB4" stroke="black"/>
<path d="M100.626 114.951C101.027 115.887 101.567 117.02 102.243 118.105C103.025 119.362 104.009 120.596 105.182 121.373C106.377 122.163 107.785 122.484 109.33 121.864L114.187 119.912L123.618 189.182C123.564 189.26 123.49 189.366 123.395 189.495C123.176 189.79 122.85 190.205 122.424 190.683C121.572 191.641 120.33 192.837 118.764 193.808C117.2 194.778 115.324 195.516 113.197 195.582C111.075 195.646 108.662 195.043 106.013 193.27C104.798 192.456 103.733 190.648 102.844 187.951C101.964 185.278 101.287 181.833 100.778 177.877C99.7594 169.969 99.4185 160.091 99.4185 150.423C99.4185 140.76 99.7585 131.322 100.099 124.299C100.269 120.788 100.44 117.882 100.568 115.853C100.588 115.53 100.608 115.228 100.626 114.951Z" fill="#F8F1F7" stroke="black"/>
<path d="M113.152 103.532C113.65 103.79 114.364 104.162 115.229 104.617C116.961 105.528 119.298 106.773 121.72 108.11C124.142 109.448 126.644 110.874 128.708 112.149C129.74 112.787 130.659 113.384 131.4 113.911C132.15 114.443 132.693 114.885 132.996 115.214C134.344 116.677 134.801 117.492 134.941 117.898C134.972 117.986 134.984 118.048 134.989 118.089L134.977 118.101L134.938 118.262L130.291 137.401L130.274 137.471L130.277 137.541L130.777 137.52L130.277 137.542V137.543C130.277 137.544 130.278 137.546 130.278 137.549C130.279 137.554 130.279 137.563 130.279 137.573C130.28 137.594 130.281 137.626 130.283 137.667C130.287 137.75 130.292 137.874 130.299 138.034C130.313 138.356 130.333 138.827 130.359 139.428C130.411 140.629 130.486 142.348 130.575 144.415C130.754 148.548 130.992 154.075 131.23 159.647C131.707 170.805 132.183 182.116 132.183 182.842C132.183 183.12 132.286 183.482 132.408 183.836C132.538 184.211 132.716 184.652 132.914 185.116C133.321 186.07 133.792 187.089 134.179 188.021C134.368 188.477 134.526 188.889 134.633 189.226C134.648 189.273 134.66 189.318 134.672 189.359C134.586 189.293 134.486 189.212 134.372 189.113C133.544 188.394 132.881 187.675 132.292 187.048C131.722 186.441 131.182 185.873 130.641 185.552C130.358 185.385 130.048 185.267 129.709 185.254C129.365 185.241 129.033 185.338 128.714 185.53C128.103 185.897 127.497 186.636 126.812 187.752C125.483 189.914 123.307 192.281 121.44 194.122C120.511 195.039 119.666 195.818 119.054 196.368C118.96 196.452 118.869 196.529 118.787 196.603L110.048 109.784L112.846 103.374C112.936 103.421 113.039 103.473 113.152 103.532Z" fill="#3F3D56" stroke="black"/>
<path d="M142.776 165.727C142.729 165.911 142.671 166.145 142.6 166.423C142.405 167.185 142.123 168.277 141.777 169.597C141.084 172.236 140.131 175.784 139.092 179.422C138.053 183.061 136.929 186.785 135.893 189.777C135.375 191.274 134.882 192.581 134.434 193.6C133.977 194.64 133.595 195.314 133.316 195.607C132.74 196.212 132.072 196.4 131.356 196.342C130.617 196.282 129.825 195.958 129.075 195.521C128.33 195.086 127.663 194.56 127.178 194.14C126.937 193.93 126.743 193.749 126.61 193.62C126.544 193.556 126.493 193.506 126.459 193.472C126.443 193.455 126.43 193.441 126.421 193.433L126.411 193.422V193.421H126.41L125.91 192.895L125.597 193.551L125.596 193.554C125.595 193.557 125.592 193.563 125.587 193.571C125.579 193.588 125.565 193.614 125.546 193.647C125.509 193.716 125.45 193.816 125.372 193.935C125.214 194.173 124.978 194.481 124.669 194.765C124.057 195.327 123.186 195.776 122.014 195.469C122.002 195.466 121.993 195.46 121.987 195.458C121.984 195.435 121.983 195.388 121.999 195.307C122.055 195.019 122.268 194.572 122.653 193.982C123.409 192.825 124.684 191.325 126.069 189.825C127.448 188.331 128.916 186.857 130.04 185.756C130.601 185.206 131.076 184.749 131.411 184.431C131.578 184.271 131.71 184.146 131.8 184.062C131.845 184.019 131.881 183.986 131.904 183.964C131.915 183.953 131.923 183.945 131.929 183.939C131.932 183.937 131.935 183.935 131.936 183.934L131.938 183.932L132.076 183.804L132.094 183.617L134.118 163.777L142.776 165.727Z" fill="#F3DDB4" stroke="black"/>
<path d="M96.9387 70.8652C99.0912 69.4083 101.85 69.4389 104.614 69.5439C104.723 69.5481 104.928 69.5856 105.238 69.667C105.537 69.7456 105.899 69.8558 106.308 69.9863C107.1 70.2395 108.123 70.5894 109.071 70.8877C110.034 71.1911 111.006 71.4698 111.798 71.6094C111.858 71.6199 111.918 71.6276 111.977 71.6367L111.996 72.2734L113.575 72.415C113.52 72.615 113.425 72.8001 113.293 72.9541L112.589 73.7764L113.671 73.7793C114.763 73.7833 115.779 74.3314 116.593 75.2227C117.407 76.1146 117.989 77.3216 118.2 78.5566C118.632 81.0719 117.923 83.6692 117.079 86.2109C116.919 86.6942 116.617 87.2153 116.285 87.5264C116.121 87.6809 115.981 87.7538 115.879 87.7754C115.854 87.7807 115.828 87.7813 115.802 87.7803C115.786 86.9421 115.729 85.9932 115.315 85.1592C115.068 84.6635 114.667 84.228 114.19 83.958C113.913 83.8016 113.599 83.6978 113.271 83.6768C113.29 82.7729 112.98 81.9113 112.488 81.1875C111.875 80.2878 110.961 79.5688 109.963 79.2041C108.025 78.4959 105.93 78.8339 104.077 79.1504C102.065 79.4943 99.8302 79.8976 98.05 81.2637C96.275 82.6259 95.2997 84.6216 94.7502 86.7822C94.3663 88.2921 94.1849 89.9074 94.0891 91.4844C93.8346 91.1962 93.5418 90.9459 93.2239 90.7441C92.569 90.3287 91.7846 90.0994 91.0012 90.1592L91.8401 87.2334C91.9016 87.0189 91.8845 86.8039 91.844 86.6328C91.8029 86.459 91.7286 86.2905 91.635 86.1523C91.6135 86.1206 91.5886 86.0885 91.5618 86.0566C91.8495 85.2435 92.0011 84.3823 92.0012 83.5117V82.7627L91.3098 83.0498L90.9114 83.2139C90.4383 79.8751 92.1793 76.4661 94.2903 73.6289L94.2961 73.6211L94.301 73.6133C95.0323 72.5472 95.9239 71.6186 96.9387 70.8652ZM91.3372 86.6084C91.3325 86.6154 91.3273 86.6235 91.3206 86.6318C91.3162 86.62 91.3117 86.6082 91.3069 86.5967L91.3372 86.6084Z" fill="#2F2E41" stroke="black"/>
<path d="M96.1763 103.193C96.2982 103.171 96.5042 103.192 96.811 103.305C97.1094 103.415 97.4574 103.596 97.8413 103.836C98.6087 104.316 99.4654 104.998 100.275 105.703C101.082 106.406 101.829 107.122 102.375 107.663C102.648 107.933 102.87 108.159 103.024 108.317C103.077 108.372 103.122 108.419 103.158 108.456C103.167 108.511 103.179 108.58 103.194 108.664C103.234 108.898 103.293 109.242 103.37 109.682C103.523 110.562 103.744 111.826 104.015 113.364C104.558 116.44 105.303 120.611 106.112 124.989C107.726 133.727 109.604 143.346 110.636 146.698C110.874 147.471 111.073 148.839 111.23 150.691C111.386 152.531 111.497 154.81 111.572 157.38C111.72 162.518 111.72 168.799 111.635 175.015C111.55 181.23 111.38 187.376 111.189 192.243C110.997 197.127 110.784 200.686 110.62 201.757C110.603 201.863 110.545 201.972 110.372 202.084C110.186 202.204 109.892 202.31 109.471 202.381C108.63 202.523 107.426 202.504 105.968 202.339C103.064 202.01 99.2887 201.12 95.6909 199.975C92.0885 198.828 88.7082 197.437 86.5786 196.121C85.4973 195.453 84.8159 194.851 84.5464 194.365C84.4197 194.137 84.4092 193.979 84.438 193.867C84.4677 193.752 84.5638 193.589 84.8403 193.402C85.6798 192.834 86.2279 191.696 86.603 190.311C86.9855 188.898 87.219 187.11 87.3433 185.1C87.5919 181.075 87.4077 176.073 87.0552 171.205C86.7024 166.333 86.1795 161.578 85.7446 158.043C85.5272 156.275 85.3311 154.811 85.1899 153.789C85.1194 153.278 85.0633 152.877 85.0239 152.604C85.0043 152.467 84.9884 152.363 84.978 152.292C84.9729 152.257 84.969 152.23 84.9663 152.212C84.965 152.203 84.9641 152.196 84.9634 152.191C84.963 152.189 84.9626 152.187 84.9624 152.186V152.185L84.9585 152.158L84.9517 152.132V152.131C84.9514 152.13 84.9502 152.129 84.9497 152.127C84.9488 152.123 84.9476 152.118 84.9458 152.111C84.9422 152.098 84.9372 152.077 84.9302 152.05C84.916 151.995 84.8951 151.914 84.8677 151.809C84.8127 151.597 84.7314 151.285 84.6284 150.887C84.4224 150.09 84.1272 148.944 83.771 147.551C83.0584 144.764 82.1018 140.988 81.1235 137.027C79.1617 129.086 77.1302 120.465 76.7944 117.557C76.6533 116.333 77.3521 115.16 78.686 114.042C80.0102 112.933 81.8621 111.966 83.771 111.168C85.6733 110.373 87.6011 109.758 89.0562 109.341C89.7826 109.133 90.3893 108.974 90.814 108.868C91.0261 108.815 91.193 108.776 91.3062 108.749C91.3627 108.736 91.4063 108.725 91.4351 108.719C91.4494 108.715 91.4602 108.714 91.4673 108.712C91.4708 108.711 91.4734 108.71 91.4751 108.71H91.4771L91.7036 108.659L91.811 108.454C91.8113 108.454 91.8124 108.453 91.813 108.452C91.8141 108.45 91.8154 108.446 91.8179 108.441C91.8227 108.432 91.8306 108.418 91.8403 108.4C91.86 108.364 91.8892 108.31 91.9272 108.241C92.0039 108.103 92.1164 107.903 92.2573 107.662C92.5395 107.18 92.9349 106.535 93.3901 105.882C93.8471 105.226 94.3559 104.575 94.8618 104.07C95.385 103.549 95.8367 103.255 96.1763 103.193Z" fill="#3F3D56" stroke="black"/>
<path d="M135.416 119.596L135.418 119.613L135.422 119.631V119.632C135.422 119.633 135.422 119.634 135.423 119.636C135.423 119.639 135.424 119.645 135.426 119.651C135.428 119.665 135.433 119.685 135.438 119.712C135.449 119.765 135.466 119.845 135.488 119.948C135.531 120.155 135.595 120.46 135.677 120.848C135.839 121.624 136.073 122.738 136.355 124.083C136.919 126.773 137.678 130.39 138.459 134.101C140.019 141.517 141.667 149.316 142.01 150.806C142.343 152.25 142.854 156.482 143.196 160.383C143.367 162.327 143.494 164.172 143.536 165.526C143.557 166.206 143.557 166.749 143.532 167.114C143.53 167.137 143.527 167.159 143.525 167.18C143.471 167.166 143.412 167.153 143.348 167.136C143.021 167.049 142.589 166.927 142.081 166.785C141.07 166.504 139.777 166.148 138.502 165.862C137.235 165.579 135.95 165.355 134.968 165.352C134.557 165.35 134.156 165.386 133.82 165.498L130.95 137.551L135.284 118.629L135.416 119.596Z" fill="#3F3D56" stroke="black"/>
<path d="M126.746 144.527C121.739 158.415 121.441 173.093 126.757 188.696H95.1846C92.1113 173.4 91.8607 158.635 95.1719 144.527H126.746Z" fill="#F2F2F2" stroke="black"/>
<path d="M91.0164 165.759L91.155 165.807L91.2976 165.772L91.3005 165.771C91.3025 165.771 91.3055 165.77 91.3093 165.77C91.3176 165.768 91.3306 165.765 91.3474 165.761C91.381 165.753 91.4312 165.741 91.4968 165.727C91.6289 165.697 91.8238 165.653 92.072 165.602C92.5685 165.498 93.2789 165.357 94.1316 165.215C95.8395 164.929 98.1078 164.634 100.369 164.589C102.643 164.543 104.853 164.753 106.475 165.437C107.281 165.776 107.917 166.222 108.352 166.789C108.782 167.35 109.038 168.058 109.038 168.97C109.038 170.753 108.051 171.943 106.445 172.748C104.815 173.566 102.601 173.952 100.329 174.089C98.0678 174.225 95.7998 174.111 94.0925 173.963C93.24 173.889 92.5292 173.806 92.033 173.742C91.7851 173.71 91.5906 173.683 91.4587 173.664C91.4041 173.656 91.3604 173.649 91.3279 173.644L82.3464 169.473L85.3044 163.779L91.0164 165.759Z" fill="#F3DDB4" stroke="black"/>
<path d="M76.9673 117.674L80.9058 131.873L82.4849 144.407L80.9019 157.421L80.8696 157.686L81.0708 157.859L87.3325 163.277C87.2041 163.367 87.0834 163.47 86.9722 163.583C86.6174 163.943 86.3097 164.433 86.0396 164.981C85.4979 166.08 85.0562 167.521 84.7085 168.932C84.3592 170.348 84.0981 171.762 83.9243 172.819C83.8603 173.209 83.8096 173.551 83.769 173.828C83.5215 173.678 83.2117 173.49 82.8511 173.275C81.8887 172.702 80.5688 171.93 79.1401 171.134C77.7124 170.338 76.1712 169.516 74.7671 168.845C73.3751 168.179 72.0778 167.643 71.1528 167.443C70.5769 167.319 70.137 166.773 69.8589 165.737C69.5869 164.724 69.5204 163.406 69.563 162.069C69.6053 160.741 69.7544 159.43 69.8931 158.449C69.9623 157.96 70.0285 157.554 70.0776 157.271C70.1022 157.13 70.1223 157.019 70.1362 156.944C70.1432 156.907 70.1492 156.878 70.1528 156.859C70.1546 156.85 70.1559 156.843 70.1567 156.839C70.1571 156.837 70.1575 156.835 70.1577 156.834V156.832L70.1616 156.812L76.3052 117.674H76.9673Z" fill="#3F3D56" stroke="black"/>
<defs>
<filter id="filter0_d_2092_249" x="0" y="1.08643" width="319.743" height="367.414" filterUnits="userSpaceOnUse" color-interpolation-filters="sRGB">
<feFlood flood-opacity="0" result="BackgroundImageFix"/>
<feColorMatrix in="SourceAlpha" type="matrix" values="0 0 0 0 0 0 0 0 0 0 0 0 0 0 0 0 0 0 127 0" result="hardAlpha"/>
<feOffset dy="4"/>
<feGaussianBlur stdDeviation="2"/>
<feComposite in2="hardAlpha" operator="out"/>
<feColorMatrix type="matrix" values="0 0 0 0 0 0 0 0 0 0 0 0 0 0 0 0 0 0 0.25 0"/>
<feBlend mode="normal" in2="BackgroundImageFix" result="effect1_dropShadow_2092_249"/>
<feBlend mode="normal" in="SourceGraphic" in2="effect1_dropShadow_2092_249" result="shape"/>
</filter>
</defs>
</svg>
