<svg width="173" height="53" viewBox="0 0 173 53" fill="none" xmlns="http://www.w3.org/2000/svg">
<path d="M67.0117 18.9395L62.959 31H60.1172L65.4297 16.7812H67.2461L67.0117 18.9395ZM70.4004 31L66.3281 18.9395L66.084 16.7812H67.9102L73.252 31H70.4004ZM70.2148 25.7168V27.8359H62.5879V25.7168H70.2148ZM81.2402 20.4336H83.584V30.6777C83.584 31.6348 83.3757 32.4453 82.959 33.1094C82.5488 33.7799 81.9727 34.2878 81.2305 34.6328C80.4883 34.9844 79.6257 35.1602 78.6426 35.1602C78.2194 35.1602 77.7604 35.1016 77.2656 34.9844C76.7773 34.8672 76.3053 34.6816 75.8496 34.4277C75.4004 34.1803 75.026 33.8581 74.7266 33.4609L75.8887 31.9375C76.2402 32.3477 76.6374 32.6569 77.0801 32.8652C77.5228 33.0801 78.0013 33.1875 78.5156 33.1875C79.0365 33.1875 79.4792 33.0898 79.8438 32.8945C80.2148 32.7057 80.498 32.4258 80.6934 32.0547C80.8952 31.6901 80.9961 31.2409 80.9961 30.707V22.8457L81.2402 20.4336ZM74.1016 25.8438V25.6387C74.1016 24.8314 74.1992 24.099 74.3945 23.4414C74.5898 22.7773 74.8698 22.2077 75.2344 21.7324C75.6055 21.2572 76.0514 20.8893 76.5723 20.6289C77.0996 20.3685 77.6921 20.2383 78.3496 20.2383C79.0462 20.2383 79.6322 20.3652 80.1074 20.6191C80.5892 20.873 80.9863 21.2344 81.2988 21.7031C81.6178 22.1719 81.8652 22.7285 82.041 23.373C82.2233 24.0111 82.3633 24.7142 82.4609 25.4824V26.0391C82.3698 26.7878 82.2233 27.4746 82.0215 28.0996C81.8262 28.7246 81.5658 29.2715 81.2402 29.7402C80.9147 30.2025 80.5111 30.5605 80.0293 30.8145C79.5475 31.0684 78.9811 31.1953 78.3301 31.1953C77.679 31.1953 77.0931 31.0618 76.5723 30.7949C76.0514 30.528 75.6055 30.1536 75.2344 29.6719C74.8698 29.1901 74.5898 28.6237 74.3945 27.9727C74.1992 27.3216 74.1016 26.612 74.1016 25.8438ZM76.6797 25.6387V25.8438C76.6797 26.2995 76.7253 26.7259 76.8164 27.123C76.9076 27.5202 77.0475 27.8717 77.2363 28.1777C77.4251 28.4772 77.6628 28.7116 77.9492 28.8809C78.2357 29.0501 78.5775 29.1348 78.9746 29.1348C79.5085 29.1348 79.9447 29.0241 80.2832 28.8027C80.6283 28.5749 80.8887 28.2656 81.0645 27.875C81.2467 27.4779 81.3639 27.0319 81.416 26.5371V25.0039C81.3835 24.6133 81.3118 24.252 81.2012 23.9199C81.097 23.5879 80.9505 23.3014 80.7617 23.0605C80.5729 22.8197 80.332 22.6309 80.0391 22.4941C79.7461 22.3574 79.3978 22.2891 78.9941 22.2891C78.6035 22.2891 78.2617 22.377 77.9688 22.5527C77.6758 22.722 77.4349 22.9596 77.2461 23.2656C77.0573 23.5716 76.9141 23.9264 76.8164 24.3301C76.7253 24.7337 76.6797 25.1699 76.6797 25.6387ZM90.6543 31.1953C89.8535 31.1953 89.1341 31.0651 88.4961 30.8047C87.8581 30.5443 87.3145 30.1829 86.8652 29.7207C86.4225 29.252 86.0807 28.7083 85.8398 28.0898C85.6055 27.4648 85.4883 26.7943 85.4883 26.0781V25.6875C85.4883 24.8737 85.6055 24.1348 85.8398 23.4707C86.0742 22.8001 86.4062 22.224 86.8359 21.7422C87.2656 21.2604 87.7799 20.8893 88.3789 20.6289C88.9779 20.3685 89.6387 20.2383 90.3613 20.2383C91.11 20.2383 91.7708 20.3652 92.3438 20.6191C92.9167 20.8665 93.3952 21.2181 93.7793 21.6738C94.1634 22.1296 94.4531 22.6764 94.6484 23.3145C94.8438 23.946 94.9414 24.6458 94.9414 25.4141V26.498H86.6602V24.7207H92.4023V24.5254C92.3893 24.1152 92.3112 23.7409 92.168 23.4023C92.0247 23.0573 91.8034 22.7839 91.5039 22.582C91.2044 22.3737 90.8171 22.2695 90.3418 22.2695C89.9577 22.2695 89.6224 22.3542 89.3359 22.5234C89.056 22.6862 88.8216 22.9206 88.6328 23.2266C88.4505 23.526 88.3138 23.8841 88.2227 24.3008C88.1315 24.7174 88.0859 25.1797 88.0859 25.6875V26.0781C88.0859 26.5208 88.1445 26.931 88.2617 27.3086C88.3854 27.6862 88.5645 28.015 88.7988 28.2949C89.0397 28.5684 89.3262 28.7832 89.6582 28.9395C89.9967 29.0892 90.3809 29.1641 90.8105 29.1641C91.3509 29.1641 91.8392 29.0599 92.2754 28.8516C92.7181 28.6367 93.1022 28.321 93.4277 27.9043L94.7266 29.252C94.5052 29.5775 94.2057 29.89 93.8281 30.1895C93.457 30.4889 93.0078 30.7331 92.4805 30.9219C91.9531 31.1042 91.3444 31.1953 90.6543 31.1953ZM99.1992 22.6895V31H96.6211V20.4336H99.043L99.1992 22.6895ZM98.7891 25.3359H98.0273C98.0339 24.5677 98.138 23.8711 98.3398 23.2461C98.5417 22.6211 98.8249 22.084 99.1895 21.6348C99.5605 21.1855 100 20.8405 100.508 20.5996C101.016 20.3587 101.582 20.2383 102.207 20.2383C102.715 20.2383 103.174 20.3099 103.584 20.4531C103.994 20.5964 104.346 20.8242 104.639 21.1367C104.938 21.4492 105.166 21.8594 105.322 22.3672C105.485 22.8685 105.566 23.487 105.566 24.2227V31H102.969V24.2031C102.969 23.7214 102.897 23.3405 102.754 23.0605C102.617 22.7806 102.415 22.582 102.148 22.4648C101.888 22.3477 101.566 22.2891 101.182 22.2891C100.785 22.2891 100.436 22.3704 100.137 22.5332C99.8438 22.6895 99.5964 22.9076 99.3945 23.1875C99.1992 23.4674 99.0495 23.7897 98.9453 24.1543C98.8411 24.5189 98.7891 24.9128 98.7891 25.3359ZM114.18 28.7539V16H116.777V31H114.434L114.18 28.7539ZM107.393 25.8438V25.6387C107.393 24.8314 107.484 24.099 107.666 23.4414C107.855 22.7773 108.128 22.2077 108.486 21.7324C108.844 21.2572 109.277 20.8893 109.785 20.6289C110.299 20.3685 110.882 20.2383 111.533 20.2383C112.165 20.2383 112.715 20.3652 113.184 20.6191C113.659 20.873 114.062 21.2344 114.395 21.7031C114.733 22.1719 115.003 22.7285 115.205 23.373C115.407 24.0111 115.553 24.7142 115.645 25.4824V26.0391C115.553 26.7878 115.407 27.4746 115.205 28.0996C115.003 28.7246 114.733 29.2715 114.395 29.7402C114.062 30.2025 113.659 30.5605 113.184 30.8145C112.708 31.0684 112.152 31.1953 111.514 31.1953C110.869 31.1953 110.29 31.0618 109.775 30.7949C109.268 30.528 108.835 30.1536 108.477 29.6719C108.125 29.1901 107.855 28.6237 107.666 27.9727C107.484 27.3216 107.393 26.612 107.393 25.8438ZM109.98 25.6387V25.8438C109.98 26.2995 110.02 26.7259 110.098 27.123C110.176 27.5202 110.303 27.8717 110.479 28.1777C110.654 28.4772 110.879 28.7116 111.152 28.8809C111.432 29.0501 111.771 29.1348 112.168 29.1348C112.676 29.1348 113.092 29.0241 113.418 28.8027C113.75 28.5749 114.007 28.2656 114.189 27.875C114.372 27.4779 114.489 27.0319 114.541 26.5371V25.0039C114.515 24.6133 114.447 24.252 114.336 23.9199C114.232 23.5879 114.082 23.3014 113.887 23.0605C113.698 22.8197 113.464 22.6309 113.184 22.4941C112.904 22.3574 112.572 22.2891 112.188 22.2891C111.79 22.2891 111.452 22.377 111.172 22.5527C110.892 22.722 110.664 22.9596 110.488 23.2656C110.312 23.5716 110.182 23.9264 110.098 24.3301C110.02 24.7337 109.98 25.1699 109.98 25.6387ZM124.932 28.7539V23.8809C124.932 23.5228 124.87 23.2135 124.746 22.9531C124.622 22.6927 124.434 22.4909 124.18 22.3477C123.926 22.2044 123.604 22.1328 123.213 22.1328C122.868 22.1328 122.565 22.1914 122.305 22.3086C122.051 22.4258 121.855 22.5918 121.719 22.8066C121.582 23.015 121.514 23.2559 121.514 23.5293H118.926C118.926 23.0931 119.03 22.6797 119.238 22.2891C119.447 21.8919 119.743 21.5404 120.127 21.2344C120.518 20.9219 120.983 20.6777 121.523 20.502C122.07 20.3262 122.682 20.2383 123.359 20.2383C124.16 20.2383 124.873 20.375 125.498 20.6484C126.13 20.9154 126.624 21.319 126.982 21.8594C127.347 22.3997 127.529 23.0801 127.529 23.9004V28.5098C127.529 29.0371 127.562 29.4896 127.627 29.8672C127.699 30.2383 127.803 30.5605 127.939 30.834V31H125.312C125.189 30.7331 125.094 30.3945 125.029 29.9844C124.964 29.5677 124.932 29.1576 124.932 28.7539ZM125.293 24.5645L125.312 26.0977H123.682C123.278 26.0977 122.923 26.14 122.617 26.2246C122.311 26.3027 122.061 26.4199 121.865 26.5762C121.67 26.7259 121.523 26.9082 121.426 27.123C121.328 27.3314 121.279 27.569 121.279 27.8359C121.279 28.0964 121.338 28.3307 121.455 28.5391C121.579 28.7474 121.755 28.9134 121.982 29.0371C122.217 29.1543 122.49 29.2129 122.803 29.2129C123.258 29.2129 123.656 29.1217 123.994 28.9395C124.333 28.7507 124.596 28.5228 124.785 28.2559C124.974 27.9889 125.075 27.735 125.088 27.4941L125.83 28.6074C125.739 28.8743 125.602 29.1576 125.42 29.457C125.238 29.7565 125.003 30.0365 124.717 30.2969C124.43 30.5573 124.085 30.7721 123.682 30.9414C123.278 31.1107 122.809 31.1953 122.275 31.1953C121.592 31.1953 120.98 31.0586 120.439 30.7852C119.899 30.5117 119.473 30.1374 119.16 29.6621C118.848 29.1868 118.691 28.6465 118.691 28.041C118.691 27.4811 118.796 26.9863 119.004 26.5566C119.212 26.127 119.521 25.7656 119.932 25.4727C120.342 25.1732 120.85 24.9486 121.455 24.7988C122.067 24.6426 122.767 24.5645 123.555 24.5645H125.293ZM134.854 20.4336V22.2891H128.799V20.4336H134.854ZM130.42 17.8359H133.008V27.9531C133.008 28.2656 133.05 28.5065 133.135 28.6758C133.219 28.8451 133.346 28.959 133.516 29.0176C133.685 29.0762 133.887 29.1055 134.121 29.1055C134.29 29.1055 134.447 29.0957 134.59 29.0762C134.733 29.0566 134.854 29.0371 134.951 29.0176L134.961 30.9512C134.746 31.0228 134.502 31.0814 134.229 31.127C133.962 31.1725 133.659 31.1953 133.32 31.1953C132.741 31.1953 132.233 31.0977 131.797 30.9023C131.361 30.7005 131.022 30.3783 130.781 29.9355C130.54 29.4863 130.42 28.8939 130.42 28.1582V17.8359ZM141.318 31.1953C140.518 31.1953 139.798 31.0651 139.16 30.8047C138.522 30.5443 137.979 30.1829 137.529 29.7207C137.087 29.252 136.745 28.7083 136.504 28.0898C136.27 27.4648 136.152 26.7943 136.152 26.0781V25.6875C136.152 24.8737 136.27 24.1348 136.504 23.4707C136.738 22.8001 137.07 22.224 137.5 21.7422C137.93 21.2604 138.444 20.8893 139.043 20.6289C139.642 20.3685 140.303 20.2383 141.025 20.2383C141.774 20.2383 142.435 20.3652 143.008 20.6191C143.581 20.8665 144.059 21.2181 144.443 21.6738C144.827 22.1296 145.117 22.6764 145.312 23.3145C145.508 23.946 145.605 24.6458 145.605 25.4141V26.498H137.324V24.7207H143.066V24.5254C143.053 24.1152 142.975 23.7409 142.832 23.4023C142.689 23.0573 142.467 22.7839 142.168 22.582C141.868 22.3737 141.481 22.2695 141.006 22.2695C140.622 22.2695 140.286 22.3542 140 22.5234C139.72 22.6862 139.486 22.9206 139.297 23.2266C139.115 23.526 138.978 23.8841 138.887 24.3008C138.796 24.7174 138.75 25.1797 138.75 25.6875V26.0781C138.75 26.5208 138.809 26.931 138.926 27.3086C139.049 27.6862 139.229 28.015 139.463 28.2949C139.704 28.5684 139.99 28.7832 140.322 28.9395C140.661 29.0892 141.045 29.1641 141.475 29.1641C142.015 29.1641 142.503 29.0599 142.939 28.8516C143.382 28.6367 143.766 28.321 144.092 27.9043L145.391 29.252C145.169 29.5775 144.87 29.89 144.492 30.1895C144.121 30.4889 143.672 30.7331 143.145 30.9219C142.617 31.1042 142.008 31.1953 141.318 31.1953ZM152.998 25.8145H149.336V23.7051H152.998C153.597 23.7051 154.082 23.6074 154.453 23.4121C154.831 23.2103 155.107 22.9368 155.283 22.5918C155.459 22.2402 155.547 21.8398 155.547 21.3906C155.547 20.9544 155.459 20.5475 155.283 20.1699C155.107 19.7923 154.831 19.4863 154.453 19.252C154.082 19.0176 153.597 18.9004 152.998 18.9004H150.215V31H147.529V16.7812H152.998C154.105 16.7812 155.049 16.9798 155.83 17.377C156.618 17.7676 157.217 18.3112 157.627 19.0078C158.044 19.6979 158.252 20.4857 158.252 21.3711C158.252 22.2891 158.044 23.0801 157.627 23.7441C157.217 24.4082 156.618 24.9193 155.83 25.2773C155.049 25.6354 154.105 25.8145 152.998 25.8145ZM164.775 31.1953C163.975 31.1953 163.255 31.0651 162.617 30.8047C161.979 30.5443 161.436 30.1829 160.986 29.7207C160.544 29.252 160.202 28.7083 159.961 28.0898C159.727 27.4648 159.609 26.7943 159.609 26.0781V25.6875C159.609 24.8737 159.727 24.1348 159.961 23.4707C160.195 22.8001 160.527 22.224 160.957 21.7422C161.387 21.2604 161.901 20.8893 162.5 20.6289C163.099 20.3685 163.76 20.2383 164.482 20.2383C165.231 20.2383 165.892 20.3652 166.465 20.6191C167.038 20.8665 167.516 21.2181 167.9 21.6738C168.285 22.1296 168.574 22.6764 168.77 23.3145C168.965 23.946 169.062 24.6458 169.062 25.4141V26.498H160.781V24.7207H166.523V24.5254C166.51 24.1152 166.432 23.7409 166.289 23.4023C166.146 23.0573 165.924 22.7839 165.625 22.582C165.326 22.3737 164.938 22.2695 164.463 22.2695C164.079 22.2695 163.743 22.3542 163.457 22.5234C163.177 22.6862 162.943 22.9206 162.754 23.2266C162.572 23.526 162.435 23.8841 162.344 24.3008C162.253 24.7174 162.207 25.1797 162.207 25.6875V26.0781C162.207 26.5208 162.266 26.931 162.383 27.3086C162.507 27.6862 162.686 28.015 162.92 28.2949C163.161 28.5684 163.447 28.7832 163.779 28.9395C164.118 29.0892 164.502 29.1641 164.932 29.1641C165.472 29.1641 165.96 29.0599 166.396 28.8516C166.839 28.6367 167.223 28.321 167.549 27.9043L168.848 29.252C168.626 29.5775 168.327 29.89 167.949 30.1895C167.578 30.4889 167.129 30.7331 166.602 30.9219C166.074 31.1042 165.465 31.1953 164.775 31.1953ZM162.969 18.959L164.883 15.9902H167.734L165.068 18.959H162.969Z" fill="white"/>
<path d="M0 10C0 4.47715 4.47715 0 10 0H43C48.5228 0 53 4.47715 53 10V43C53 48.5228 48.5228 53 43 53H10C4.47715 53 0 48.5228 0 43V10Z" fill="#F3DDB4"/>
<rect x="24.9412" y="11.7773" width="4.67647" height="1.47222" fill="#F3DDB4"/>
<rect width="28.3657" height="20.7474" transform="matrix(0.999998 -0.00220317 0.0022402 0.999997 12.5789 21.7534)" fill="#F2F2F2"/>
<ellipse cx="26.8357" cy="33.8018" rx="6.81856" ry="6.39314" fill="#3CBCE0"/>
<rect x="12.3308" y="19.1719" width="28.8859" height="2.09007" fill="#D7B377"/>
<rect x="18.0337" y="14.6226" width="17.4803" height="2.09007" fill="#D7B377"/>
<rect x="23.1165" y="10.3198" width="7.56241" height="4.42602" fill="#D7B377"/>
<rect x="25.3481" y="8.72119" width="2.8514" height="4.42602" fill="#D7B377"/>
<path d="M24.8831 8.26248C24.0731 8.96736 22.5689 10.2624 21.5275 11.1312C20.4861 12 18.7174 13.5081 17.5769 14.4753C16.4363 15.4425 13.8081 17.6719 11.7088 19.4423C9.62601 21.2127 7.70855 22.852 7.4606 23.0978C6.98123 23.5568 6.86552 24.1634 7.16306 24.7207C7.51019 25.36 8.2375 25.0486 9.97314 23.5732C10.2872 23.2946 10.6013 23.0651 10.6674 23.0651C10.7335 23.0651 10.7996 26.8845 10.8327 31.5401C10.8823 39.9987 10.8823 40.0315 11.2625 40.8511C11.7749 41.9494 12.8328 43.0149 13.9403 43.5395L14.8494 43.9657L23.2962 44.0149L31.7429 44.0641L33.4621 46.7525C35.3795 49.7523 35.363 49.7359 36.7515 49.113C37.6937 48.6868 38.4541 48.1131 38.9004 47.4901L39.264 46.982L37.9251 45.5394L36.5862 44.0805L37.7929 43.9657C39.9087 43.769 41.5121 42.7199 42.3716 40.9986L42.7849 40.1954L42.8345 31.622C42.851 26.9173 42.9337 23.0651 42.9998 23.0651C43.0659 23.0651 43.661 23.5077 44.3222 24.0486C44.9999 24.5896 45.628 25.0486 45.7272 25.0486C46.438 25.1305 47 24.6715 47 24.0322C47 23.6552 46.6033 23.2454 44.5701 21.475C43.2312 20.3275 41.8757 19.1472 41.5451 18.8849C40.8509 18.3276 30.09 9.14768 28.5857 7.85266C27.7758 7.14778 27.4948 7.00024 26.9824 7.00024C26.4369 7.00024 26.1559 7.16417 24.8831 8.26248ZM29.6932 11.7869L30.2222 12.2295L26.8005 12.2459C24.8996 12.2459 23.3623 12.2131 23.3623 12.1803C23.3623 12.1475 24.1062 11.4918 25.0318 10.705L26.7013 9.29521L27.9246 10.3116C28.6023 10.8853 29.3957 11.541 29.6932 11.7869ZM34.3547 15.7703L35.1812 16.508H26.7013H18.205L19.0811 15.7703L19.9572 15.0326H26.7344L33.5282 15.049L34.3547 15.7703ZM39.1979 19.9013C39.7269 20.3275 40.2062 20.7373 40.3054 20.8029C40.3881 20.8684 34.2555 20.934 26.6848 20.934H12.932L13.9734 20.0324L15.0147 19.1472L26.6352 19.1308H38.2722L39.1979 19.9013ZM40.7187 30.7696C40.7187 39.9659 40.7187 39.9823 39.8426 40.9003C39.0657 41.7363 38.4045 41.9166 36.3052 41.9002C35.2307 41.8838 34.1398 41.8347 33.8918 41.7691C33.5943 41.7035 33.1315 41.3101 32.619 40.7036L31.8091 39.7364L32.586 38.884C33.9414 37.425 34.5861 35.7366 34.6026 33.7203C34.6191 30.0483 32.0901 26.9501 28.3874 26.0813C24.1888 25.1141 19.8415 28.0648 19.048 32.4089C18.5191 35.3596 20.0563 38.8348 22.5193 40.2282C22.9325 40.4741 23.5111 40.8347 23.7756 41.0478C24.0566 41.2445 24.5359 41.5232 24.85 41.6543C25.379 41.8838 25.0153 41.9002 20.3374 41.9166C15.4776 41.9166 15.2296 41.9002 14.5023 41.556C14.0229 41.3429 13.5766 40.9658 13.3122 40.556L12.8659 39.8839L12.8163 31.0647L12.7667 22.2454H26.7509H40.7187V30.7696ZM29.1147 28.3435C31.9578 29.6713 33.2141 33.3433 31.7925 36.3103C31.0652 37.8348 30.966 37.7529 30.9826 35.6546C30.9991 34.6383 31.0487 33.9662 31.0818 34.1793C31.1148 34.376 31.2305 34.5071 31.3132 34.458C31.5611 34.294 31.4785 32.3761 31.1975 31.5401C30.685 30.0319 28.751 28.6386 27.1476 28.6386C26.2385 28.6386 24.4533 29.5074 23.4615 30.4254C22.3871 31.4089 22.1556 32.1466 22.0565 34.8678L21.9573 37.2447L21.4614 36.1792C21.0151 35.2284 20.9655 34.9497 20.982 33.6383C20.982 32.5072 21.0647 31.9827 21.3457 31.3925C21.7424 30.5237 22.7342 29.3762 23.6599 28.7533C25.0649 27.7861 27.5113 27.6058 29.1147 28.3435ZM28.4204 30.2942C29.3627 30.868 30.09 31.8187 30.2883 32.7203C30.3875 33.1957 30.4701 34.5563 30.4701 35.753C30.4701 38.3102 30.371 38.5069 28.9494 39.1463C27.2138 39.9003 24.8335 39.5889 23.2466 38.3758L22.7011 37.966V35.4907C22.7011 34.0973 22.7838 32.7531 22.8995 32.3925C23.1144 31.622 24.0235 30.5401 24.7178 30.1795C25.8583 29.5893 27.3625 29.6385 28.4204 30.2942ZM30.652 41.6216C30.8007 41.9002 30.685 41.9166 29.3131 41.9166H27.7923L28.8502 41.3593C29.8255 40.8511 29.9081 40.8183 30.1891 41.0806C30.371 41.2117 30.5693 41.474 30.652 41.6216Z" fill="black"/>
<path d="M28.6353 36.3596C28.3378 36.917 28.6849 37.4907 29.313 37.4907C29.6767 37.4907 29.8585 37.3924 29.9908 37.0973C30.2552 36.5236 29.9412 36.0154 29.313 36.0154C28.9824 36.0154 28.7675 36.1301 28.6353 36.3596Z" fill="black"/>
<path d="M39.4128 48.3423C38.8673 49.0308 37.8755 49.7029 36.9498 50.0471C35.9084 50.4242 35.8589 50.4897 36.2721 50.9815C37.1482 52.1126 38.2061 52.1454 39.545 51.0963C40.636 50.2439 40.9005 49.457 40.4542 48.539C40.2723 48.1948 40.074 47.8997 39.9748 47.8833C39.8921 47.8505 39.6277 48.0636 39.4128 48.3423Z" fill="black"/>
</svg>
